<?xml version="1.0" encoding="UTF-8"?>
<?xml-stylesheet type="text/css" href="stroke.css" ?>
<svg xmlns="http://www.w3.org/2000/svg" xmlns:xlink="http://www.w3.org/1999/xlink" width="2.365829in" height="2.351405in" version="1.1" viewBox="344.072632 -85.813354 312.289429 310.385498">
  <!--
	Exported with Concepts: Smarter Sketching
	Version: 336
	iOS Version: 10.2
	https://concepts.tophatch.com/
	-->
  <title>Cog Cloud</title>
  <desc>Drawing exported from Concepts: Smarter Sketching</desc>
  <g id="Pen" opacity="1.000">
    <path id="stroke-0" opacity="1.000" fill="none" stroke="#747879" stroke-width="7.800" stroke-opacity="1.000" stroke-linecap="round" stroke-linejoin="round" d="M 491.851 104.096 Q 489.946 105.695 488.059 108.463 486.171 111.232 486.441 111.890 486.710 112.547 488.655 114.925 490.601 117.303 491.625 116.679 492.650 116.055 495.721 115.054 498.792 114.053 500.387 115.448 501.982 116.843 503.783 117.744 505.585 118.645 505.117 120.628 504.649 122.611 504.597 124.987 504.546 127.363 507.436 129.047 510.326 130.731 513.266 127.531 516.205 124.332 520.040 124.196 523.875 124.060 524.445 126.079 525.015 128.098 526.050 129.876 527.085 131.654 530.734 131.440 534.383 131.227 534.784 127.326 535.184 123.425 539.005 121.504 542.825 119.582 546.234 122.282 549.642 124.983 552.425 123.025 555.207 121.068 554.457 118.610 553.708 116.153 552.707 114.207 551.706 112.262 552.545 111.561 553.384 110.859 555.062 108.329 556.740 105.800 560.942 106.435 565.143 107.071 566.469 104.430 567.794 101.789 566.167 100.816 564.541 99.844 562.898 97.956 561.256 96.069 561.670 93.954 562.084 91.839 561.847 90.759 561.610 89.679 562.154 88.381 562.698 87.084 565.688 85.758 568.677 84.432 569.165 83.874 569.654 83.316 569.827 80.737 570.000 78.158 567.614 77.957 565.228 77.756 563.104 77.192 560.979 76.628 561.027 75.994 561.074 75.360 560.173 73.784 559.272 72.207 558.967 70.336 558.662 68.464 560.169 66.517 561.675 64.569 562.253 63.104 562.831 61.639 562.327 61.283 561.822 60.926 560.846 58.664 559.869 56.402 555.759 58.493 551.649 60.584 550.842 59.737 550.035 58.890 547.603 57.326 545.171 55.761 544.458 55.644 543.744 55.526 544.298 49.873 544.851 44.221 543.745 43.394 542.639 42.567 541.100 42.685 539.561 42.802 538.083 44.943 536.604 47.084 533.826 48.425 531.047 49.767 528.091 49.799 525.136 49.831 524.866 48.048 524.597 46.264 524.079 45.247 523.560 44.231 521.663 42.346 519.765 40.460 517.641 41.022 515.516 41.585 514.165 44.288 512.814 46.990 512.804 49.093 512.794 51.196 509.542 52.629 506.289 54.063 503.741 52.341 501.194 50.619 500.024 49.511 498.854 48.403 496.789 49.862 494.724 51.321 494.722 52.192 494.721 53.063 495.456 54.861 496.192 56.659 496.854 59.152 497.516 61.645 495.987 63.039 494.458 64.432 493.787 66.294 493.115 68.155 490.427 67.464 487.738 66.773 486.012 66.558 484.286 66.343 483.492 67.281 482.699 68.220 481.793 70.383 480.886 72.546 483.796 74.528 486.706 76.511 487.033 77.811 487.360 79.110 487.353 82.594 487.345 86.078 484.774 86.926 482.203 87.773 480.600 88.736 478.998 89.699 479.369 93.232 479.740 96.766 484.203 97.039 488.666 97.312 489.491 99.329 490.316 101.346 491.203 102.262 L 492.090 103.179 "></path>
    <path id="stroke-1" opacity="1.000" fill="none" stroke="#747879" stroke-width="7.800" stroke-opacity="1.000" stroke-linecap="round" stroke-linejoin="round" d="M 514.279 28.161 Q 514.477 29.941 514.687 30.751 514.898 31.560 515.396 32.700 515.894 33.840 516.881 35.719 517.867 37.598 518.237 37.496 518.607 37.394 520.491 37.306 522.375 37.217 523.563 38.133 524.752 39.050 524.958 40.924 525.164 42.798 525.342 43.232 525.521 43.666 526.592 44.025 527.662 44.383 529.279 44.767 530.895 45.150 532.441 45.256 533.987 45.362 534.467 44.044 534.946 42.727 535.572 42.012 536.197 41.297 537.028 41.061 537.859 40.826 538.510 40.416 539.161 40.006 540.011 40.265 540.860 40.524 542.098 41.176 543.335 41.828 543.703 41.703 544.070 41.577 544.858 40.825 545.645 40.073 546.752 39.175 547.858 38.278 548.415 37.592 548.971 36.907 549.479 35.918 549.986 34.929 549.340 34.275 548.693 33.620 548.119 32.416 547.544 31.211 547.719 30.771 547.895 30.330 548.025 29.350 548.155 28.369 549.076 27.795 549.996 27.221 550.688 26.453 551.380 25.685 551.171 24.899 550.963 24.112 550.589 22.205 550.215 20.298 549.857 19.146 549.500 17.994 549.213 17.404 548.927 16.813 546.591 16.585 544.254 16.357 542.754 15.396 541.255 14.436 541.268 14.033 541.281 13.630 541.083 11.849 540.885 10.069 539.781 9.595 538.677 9.121 536.693 8.579 534.708 8.038 533.258 7.948 531.808 7.858 530.490 9.884 529.172 11.911 528.059 12.171 526.946 12.430 526.336 12.766 525.726 13.101 524.862 12.677 523.999 12.254 522.901 11.850 521.803 11.447 521.124 11.811 520.446 12.176 519.354 13.238 518.261 14.300 517.646 15.132 517.031 15.964 516.433 17.008 515.836 18.051 516.845 19.645 517.855 21.238 518.118 21.547 518.380 21.856 518.204 23.691 518.029 25.526 517.200 26.069 516.371 26.612 515.464 27.351 L 514.557 28.090 "></path>
    <path id="stroke-2" opacity="1.000" fill="none" stroke="#747879" stroke-width="7.800" stroke-opacity="1.000" stroke-linecap="round" stroke-linejoin="round" d="M 552.801 -13.759 Q 543.483 -14.678 542.745 -12.861 542.007 -11.043 541.483 -9.227 540.958 -7.410 544.947 -5.184 548.936 -2.959 549.019 -1.576 549.103 -0.194 549.512 1.477 549.922 3.149 548.493 4.231 547.064 5.314 545.595 6.909 544.126 8.504 543.510 8.998 542.893 9.492 544.766 12.705 546.638 15.918 548.693 15.379 550.747 14.840 552.388 14.213 554.028 13.586 554.822 13.573 555.616 13.561 557.461 14.760 559.307 15.959 558.841 17.570 558.375 19.182 558.053 21.514 557.732 23.846 557.765 24.490 557.798 25.134 558.708 25.382 559.619 25.629 561.364 26.449 563.110 27.268 564.217 27.634 565.324 28.000 565.691 27.106 566.058 26.212 567.382 23.683 568.705 21.154 568.947 20.060 569.190 18.966 570.952 18.783 572.713 18.599 574.466 18.262 576.219 17.925 577.257 19.896 578.295 21.867 579.748 23.926 581.201 25.984 582.227 25.395 583.252 24.805 585.186 24.036 587.120 23.266 588.005 22.596 588.890 21.926 587.760 19.729 586.631 17.532 585.899 15.329 585.167 13.126 585.954 12.503 586.740 11.880 587.609 10.660 588.478 9.439 592.741 10.118 597.005 10.797 598.250 8.836 599.495 6.875 599.748 5.265 600.000 3.654 598.596 2.791 597.192 1.927 595.985 1.395 594.779 0.863 593.255 -0.017 591.731 -0.898 591.857 -1.368 591.983 -1.838 591.578 -4.423 591.172 -7.007 592.100 -7.549 593.028 -8.092 593.992 -9.117 594.956 -10.142 596.644 -11.341 598.333 -12.540 597.673 -13.941 597.013 -15.342 596.829 -16.220 596.646 -17.099 595.512 -18.595 594.378 -20.092 592.469 -19.289 590.561 -18.486 588.221 -17.864 585.881 -17.242 585.078 -18.054 584.276 -18.865 583.160 -19.384 582.043 -19.904 582.396 -22.018 582.748 -24.133 582.829 -26.711 582.911 -29.290 581.170 -29.926 579.430 -30.562 577.549 -31.065 575.669 -31.568 574.160 -29.460 572.651 -27.353 571.563 -25.431 570.475 -23.509 567.366 -23.055 564.257 -22.600 563.173 -24.242 562.089 -25.884 560.548 -27.742 559.007 -29.600 557.926 -28.835 556.846 -28.070 554.631 -27.034 552.417 -25.999 553.103 -24.564 553.788 -23.129 554.587 -20.307 555.387 -17.486 554.269 -15.568 L 553.152 -13.650 "></path>
    <path id="stroke-3" opacity="1.000" fill="none" stroke="#747879" stroke-width="7.800" stroke-opacity="1.000" stroke-linecap="round" stroke-linejoin="round" d="M 553.660 124.191 Q 544.495 122.276 543.566 124.004 542.637 125.732 541.920 127.481 541.203 129.231 544.930 131.872 548.656 134.514 548.591 135.897 548.525 137.281 548.753 138.986 548.980 140.692 547.443 141.615 545.906 142.537 544.274 143.965 542.642 145.393 541.976 145.818 541.310 146.243 542.826 149.639 544.342 153.035 546.443 152.719 548.544 152.404 550.242 151.957 551.940 151.510 552.731 151.583 553.521 151.656 555.227 153.046 556.933 154.437 556.297 155.989 555.660 157.541 555.090 159.825 554.520 162.109 554.483 162.753 554.447 163.397 555.325 163.741 556.204 164.085 557.851 165.087 559.498 166.089 560.560 166.572 561.621 167.055 562.082 166.206 562.543 165.357 564.131 162.985 565.719 160.612 566.077 159.551 566.435 158.490 568.207 158.496 569.978 158.503 571.757 158.356 573.536 158.209 574.356 160.281 575.177 162.352 576.400 164.555 577.623 166.758 578.706 166.282 579.789 165.806 581.795 165.249 583.800 164.692 584.752 164.121 585.703 163.550 584.817 161.244 583.930 158.939 583.439 156.670 582.948 154.401 583.797 153.866 584.646 153.331 585.641 152.211 586.637 151.091 590.802 152.224 594.967 153.358 596.416 151.542 597.865 149.726 598.289 148.153 598.713 146.579 597.410 145.569 596.107 144.559 594.965 143.901 593.823 143.242 592.402 142.203 590.982 141.164 591.158 140.710 591.333 140.256 591.208 137.643 591.083 135.030 592.064 134.590 593.044 134.151 594.113 133.236 595.181 132.320 596.989 131.310 598.797 130.299 598.292 128.835 597.786 127.371 597.698 126.478 597.610 125.585 596.643 123.975 595.677 122.365 593.693 122.958 591.709 123.552 589.316 123.919 586.922 124.285 586.212 123.392 585.502 122.499 584.448 121.863 583.393 121.226 583.971 119.162 584.549 117.098 584.907 114.543 585.265 111.988 583.603 111.169 581.941 110.349 580.126 109.647 578.310 108.945 576.583 110.878 574.856 112.811 573.568 114.604 572.280 116.398 569.140 116.516 566.000 116.634 565.099 114.885 564.198 113.135 562.865 111.123 561.533 109.110 560.376 109.755 559.220 110.399 556.907 111.190 554.594 111.982 555.122 113.482 555.649 114.982 556.140 117.874 556.631 120.765 555.314 122.551 L 553.997 124.338 "></path>
    <path id="stroke-4" opacity="1.000" fill="none" stroke="#747879" stroke-width="7.800" stroke-opacity="1.000" stroke-linecap="round" stroke-linejoin="round" d="M 410.123 131.193 Q 407.904 132.315 405.436 134.581 402.967 136.847 403.080 137.549 403.192 138.251 404.545 141.009 405.898 143.767 407.037 143.393 408.177 143.019 411.395 142.744 414.614 142.469 415.849 144.190 417.084 145.912 418.633 147.199 420.183 148.487 419.275 150.311 418.368 152.136 417.776 154.437 417.185 156.739 419.616 159.037 422.046 161.335 425.637 158.889 429.228 156.444 432.993 157.185 436.758 157.926 436.854 160.022 436.949 162.118 437.551 164.084 438.154 166.051 441.756 166.674 445.358 167.297 446.636 163.590 447.915 159.883 452.073 158.882 456.230 157.881 458.934 161.287 461.638 164.693 464.793 163.421 467.948 162.148 467.778 159.585 467.608 157.021 467.076 154.899 466.545 152.777 467.522 152.285 468.499 151.793 470.709 149.712 472.919 147.631 476.865 149.207 480.811 150.782 482.703 148.513 484.595 146.243 483.233 144.925 481.871 143.608 480.701 141.396 479.532 139.184 480.417 137.219 481.302 135.255 481.317 134.149 481.332 133.043 482.157 131.903 482.983 130.764 486.196 130.154 489.409 129.544 490.011 129.112 490.614 128.679 491.370 126.207 492.126 123.735 489.848 122.996 487.571 122.257 485.631 121.224 483.690 120.191 483.881 119.585 484.072 118.979 483.554 117.238 483.035 115.498 483.164 113.606 483.294 111.714 485.204 110.161 487.115 108.608 488.011 107.313 488.908 106.018 488.498 105.556 488.088 105.094 487.652 102.669 487.216 100.244 482.738 101.344 478.260 102.444 477.667 101.435 477.074 100.427 475.062 98.350 473.051 96.272 472.383 95.995 471.715 95.719 473.541 90.341 475.368 84.963 474.479 83.905 473.590 82.848 472.065 82.612 470.540 82.376 468.612 84.124 466.685 85.872 463.674 86.545 460.663 87.219 457.778 86.577 454.892 85.935 455.036 84.137 455.181 82.339 454.907 81.231 454.634 80.123 453.216 77.855 451.797 75.587 449.601 75.651 447.404 75.714 445.473 78.038 443.541 80.362 443.053 82.408 442.564 84.453 439.071 85.108 435.577 85.763 433.489 83.506 431.401 81.249 430.514 79.904 429.627 78.558 427.284 79.509 424.941 80.459 424.741 81.307 424.541 82.155 424.847 84.073 425.154 85.991 425.231 88.569 425.308 91.148 423.502 92.156 421.696 93.165 420.618 94.825 419.540 96.485 417.080 95.199 414.619 93.913 412.987 93.311 411.355 92.708 410.369 93.442 409.383 94.175 408.008 96.075 406.632 97.974 409.014 100.567 411.396 103.161 411.419 104.501 411.441 105.841 410.640 109.231 409.839 112.622 407.143 112.862 404.446 113.101 402.667 113.674 400.887 114.246 400.444 117.772 400.000 121.297 404.283 122.579 408.567 123.861 408.911 126.013 409.255 128.165 409.910 129.259 L 410.565 130.354 "></path>
    <path id="stroke-5" opacity="1.000" fill="none" stroke="#5578af" stroke-width="7.800" stroke-opacity="1.000" stroke-linecap="round" stroke-linejoin="round" d="M 541.251 8.060 Q 537.167 6.175 533.868 5.860 530.569 5.546 526.171 7.431 521.772 9.316 518.474 13.715 515.175 18.113 514.075 24.396 512.976 30.680 513.761 35.235 514.547 39.790 513.918 41.518 513.290 43.246 510.777 43.246 508.263 43.246 505.436 44.346 502.608 45.445 498.053 49.058 493.497 52.671 490.513 56.284 487.528 59.897 484.858 64.138 482.188 68.380 480.931 74.035 479.674 79.690 479.988 86.287 480.303 92.885 480.931 96.026 481.559 99.168 485.015 106.708 488.471 114.248 493.026 119.117 497.582 123.987 502.765 126.972 507.949 129.956 512.819 131.527 517.688 133.098 524.914 133.098 532.140 133.098 537.167 132.312 542.193 131.527 541.251 134.983 540.308 138.439 542.350 145.036 544.392 151.634 546.906 154.932 549.419 158.231 554.917 161.373 560.415 164.514 564.028 165.614 567.641 166.714 570.939 166.714 574.238 166.714 577.066 165.771 579.893 164.828 585.391 161.844 590.889 158.859 592.774 156.974 594.659 155.089 596.387 145.350 598.115 135.611 597.958 128.385 597.801 121.159 597.801 99.011 597.801 76.862 597.644 76.705 597.486 76.548 597.486 59.426 597.486 42.304 597.015 24.710 596.544 7.117 596.544 -0.266 596.544 -7.649 595.287 -13.147 594.031 -18.644 589.946 -23.200 585.862 -27.755 582.564 -29.169 579.265 -30.583 573.924 -30.426 568.583 -30.269 563.714 -28.855 558.844 -27.441 554.917 -25.713 550.990 -23.985 547.220 -18.959 543.450 -13.932 542.036 -10.005 540.622 -6.078 540.622 -4.036 540.622 -1.994 541.879 3.975 543.136 9.945 542.507 9.788 L 541.879 9.630 "></path>
  </g>
</svg>
